<svg width="80" height="32" viewBox="0 0 80 32" fill="none" xmlns="http://www.w3.org/2000/svg">
<g clip-path="url(#clip0_2209_18160)">
<path d="M35.6494 30.9829H40.6253C40.9902 30.9829 41.2888 30.6844 41.2888 30.3195V10.5597C41.2888 10.1948 40.9902 9.89624 40.6253 9.89624H35.6494C35.2845 9.89624 34.986 10.1948 34.986 10.5597V30.3195C34.986 30.6844 35.2845 30.9829 35.6494 30.9829Z" fill="#073B52"/>
<path d="M35.4398 6.04823H40.8249C41.1897 6.04823 41.4883 5.74968 41.4883 5.38478V1.30456C41.4883 0.939666 41.1897 0.641113 40.8249 0.641113H35.4398C35.0749 0.641113 34.7764 0.939666 34.7764 1.30456V5.38478C34.7764 5.76073 35.0749 6.04823 35.4398 6.04823Z" fill="#073B52"/>
<path d="M59.2354 0.8846C59.2354 0.552877 58.9921 0.265381 58.6604 0.221151C57.7094 0.0995179 56.3383 0 55.3984 0C48.8081 0 48.0562 3.58264 48.1557 9.19986C48.1668 9.57579 47.8682 9.88545 47.4923 9.88545H45.8889C45.524 9.88545 45.2255 10.184 45.2255 10.5489V13.4128C45.2255 13.7777 45.524 14.0763 45.8889 14.0763H47.5033C47.8682 14.0763 48.1668 14.3748 48.1668 14.7397V30.3087C48.1668 30.6736 48.4653 30.9721 48.8302 30.9721H53.8172C54.1821 30.9721 54.4806 30.6736 54.4806 30.3087V14.7397C54.4806 14.3748 54.7792 14.0763 55.1441 14.0763H57.632C57.9969 14.0763 58.2955 13.7777 58.2955 13.4128V10.5489C58.2955 10.184 57.9969 9.88545 57.632 9.88545H55.122C54.7571 9.88545 54.4695 9.59793 54.4585 9.24407C54.3368 5.73886 54.9893 3.94754 58.5277 4.15763C58.9147 4.17975 59.2354 3.88119 59.2354 3.49418V0.8846Z" fill="#073B52"/>
<path d="M76.3965 25.1998C76.0648 24.8681 75.5234 24.8792 75.1917 25.2109C74.1738 26.2393 72.7917 27.0796 70.6579 27.0907C67.6944 27.0907 66.3233 25.3657 66.2458 22.8999C66.2348 22.524 66.5334 22.2143 66.9093 22.2143H78.8186C79.1834 22.2143 79.4821 21.9158 79.4821 21.5509C79.4821 20.4009 79.3821 16.7519 78.2655 14.4077C76.5076 10.7034 74.1076 9.36548 70.16 9.36548C63.7358 9.36548 60.0426 14.2418 60.0426 20.5889C60.0426 27.6435 63.3377 31.7238 70.5696 31.7238C73.92 31.7238 76.8503 30.596 78.6193 28.4618C78.8958 28.1301 78.8517 27.6325 78.5421 27.334L76.3965 25.1998ZM66.9425 18.0124C66.5555 18.0124 66.2348 17.6697 66.279 17.2827C66.4781 15.2702 67.3627 13.5562 69.9503 13.5452C72.7034 13.5452 73.5662 15.2702 73.7096 17.2937C73.7317 17.6807 73.4221 18.0014 73.0462 18.0014L66.9425 18.0124Z" fill="#073B52"/>
<path d="M0.973062 10.2941C2.65381 9.56419 4.26821 8.69067 5.80521 7.6955C6.26962 7.38592 6.88884 7.72867 6.88884 8.29261V30.2971C6.88884 30.6841 7.20952 31.0047 7.59655 31.0047H12.495C12.882 31.0047 13.2027 30.6841 13.2027 30.2971V1.35954C13.2027 0.972523 12.882 0.651855 12.495 0.651855H7.55228C7.39752 0.651855 7.25372 0.696089 7.13214 0.784544C5.07541 2.31048 2.80861 3.6595 0.420187 4.70997C0.165863 4.82054 0 5.07487 0 5.35131V9.63054C0 10.1392 0.508647 10.4931 0.973062 10.2941Z" fill="#1A779E"/>
<path d="M30.0874 21.3626C28.4067 22.0924 26.7923 22.9659 25.2553 23.9611C24.7909 24.2707 24.1716 23.9279 24.1716 23.364V1.35954C24.1716 0.972523 23.851 0.651855 23.4639 0.651855H18.5654C18.1785 0.651855 17.8578 0.972523 17.8578 1.35954V30.286C17.8578 30.673 18.1785 30.9937 18.5654 30.9937H23.5082C23.663 30.9937 23.8068 30.9494 23.9283 30.861C25.9851 29.3351 28.2519 27.9861 30.6403 26.9356C30.8946 26.825 31.0605 26.5707 31.0605 26.2943V22.015C31.0605 21.5063 30.5519 21.1636 30.0874 21.3626Z" fill="#073B52"/>
</g>
<defs>
<clipPath id="clip0_2209_18160">
<rect width="80" height="31.7241" fill="white"/>
</clipPath>
</defs>
</svg>
